<svg width="26" height="26" viewBox="0 0 26 26" fill="none" xmlns="http://www.w3.org/2000/svg">
<circle cx="13" cy="13" r="13" fill="white"/>
<path d="M17.9709 7.28859L17.9709 7.28859L17.9689 7.28641C17.5675 6.83279 16.9041 6.75812 16.4355 7.09539L16.4351 7.09572C15.9371 7.45316 15.768 8.11666 16.0467 8.66837L16.048 8.6711C16.1099 8.79596 16.21 8.92301 16.3295 9.04248L16.3313 9.04426C17.7678 10.4982 18.3446 12.2735 17.8341 14.3294L17.8341 14.3295C17.3467 16.2894 16.0917 17.5916 14.2445 18.1773L14.2439 18.1775C12.4433 18.7457 10.7473 18.3827 9.29388 17.1611C8.04107 16.1106 7.39946 14.6968 7.37741 13.0317C7.35841 11.7029 7.80423 10.528 8.62334 9.5252C8.69461 9.43739 8.77427 9.36624 8.83165 9.31544C8.83667 9.31099 8.84153 9.30669 8.84624 9.30253C8.90259 9.25268 8.93764 9.22167 8.96798 9.1882L8.96796 9.18818L8.97096 9.18495C9.30073 8.82898 9.38905 8.42543 9.2451 7.95198C9.09945 7.48526 8.79132 7.22026 8.32754 7.12616C7.98894 7.05821 7.68271 7.14281 7.38091 7.38516L7.3797 7.38612C6.77749 7.8659 6.35488 8.51596 5.96091 9.25146C5.29889 10.4885 5.00045 11.824 5.04796 13.2448L5.04797 13.2453C5.10386 14.9779 5.65231 16.5167 6.68688 17.8675C7.66911 19.1469 8.8955 20.0439 10.3793 20.4968L10.3797 20.4969C12.912 21.2721 15.2522 20.8673 17.3721 19.2076L17.3723 19.2075C18.7443 18.1347 19.6462 16.7092 20.0941 14.9676L20.0945 14.9658C20.2628 14.3235 20.336 13.6622 20.339 12.9821C20.3074 10.8173 19.5663 8.97535 18.1076 7.44387L18.3973 7.168L18.1084 7.4447C18.0771 7.41197 18.0257 7.35224 17.9948 7.31625C17.9833 7.30291 17.9747 7.29283 17.9709 7.28859Z" fill="#FE724C" stroke="white" stroke-width="0.8"/>
<path d="M11.1115 10.6563C11.1144 11.4967 11.7262 12.1934 12.5224 12.2728C13.3478 12.3584 14.0855 11.8022 14.2494 10.9649C14.2728 10.8458 14.2758 10.7235 14.2758 10.6013M11.1115 10.6563C11.1056 8.39502 11.1056 7.60039 11.1115 5.33909C11.1115 4.7371 11.3837 4.26956 11.8725 3.96398C12.3819 3.64312 12.9263 3.6309 13.4474 3.93037C13.9801 4.23595 14.267 4.72182 14.2699 5.36354M11.1115 10.6563L11.5114 10.6553C11.5114 10.6552 11.5114 10.6552 11.5114 10.6552C11.5138 11.3041 11.9833 11.8171 12.5621 11.8748L12.5636 11.875C13.1758 11.9384 13.7313 11.5297 13.8569 10.8881L13.8569 10.8878C13.8722 10.81 13.8757 10.7216 13.8758 10.6023M11.1115 10.6563L11.5114 10.6549L13.8758 10.6023M14.2699 5.36354C14.2718 6.08131 14.2713 6.50094 14.2706 7.00303C14.2703 7.28757 14.2699 7.59858 14.2699 8.00534V8.00539C14.2699 9.11461 14.2699 9.49207 14.2758 10.6013M14.2699 5.36354L13.8699 5.36536C13.8699 5.36524 13.8699 5.36512 13.8699 5.36499M14.2699 5.36354L13.8699 5.36458C13.8699 5.36472 13.8699 5.36486 13.8699 5.36499M14.2758 10.6013L13.8758 10.6034C13.8758 10.6031 13.8758 10.6027 13.8758 10.6023M14.2758 10.6013H13.8758C13.8758 10.6017 13.8758 10.602 13.8758 10.6023M13.8758 10.6023C13.8699 9.4929 13.8699 9.11454 13.8699 8.00534C13.8699 7.59755 13.8703 7.28623 13.8706 7.00165C13.8713 6.50025 13.8718 6.08185 13.8699 5.36499M13.8758 10.6023L11.5114 5.34013L11.5115 5.33909C11.5115 4.87805 11.71 4.53727 12.0845 4.30316L12.0857 4.30243L12.0857 4.30242C12.4704 4.06008 12.8562 4.05195 13.248 4.27717L13.2483 4.27734C13.6556 4.51093 13.8675 4.8642 13.8699 5.36499" fill="#FE724C" stroke="white" stroke-width="0.8"/>
</svg>
